<svg data-v-423bf9ae="" xmlns="http://www.w3.org/2000/svg" viewBox="0 0 411.86441425145085 163" class="iconAbove"><!----><!----><!----><g data-v-423bf9ae="" id="098407a3-af83-43df-b35d-37807c5439ce" fill="#000000" transform="matrix(4.622496310940746,0,0,4.622496310940746,-5.408324869347894,88.02310833218974)"><path d="M5.34 3.82L1.17 3.82L1.17 13.15L2.65 13.15L2.65 9.45L5.34 9.44C6.83 9.44 8.33 8.44 8.33 6.64C8.33 4.81 6.83 3.82 5.34 3.82ZM4.78 8.30L2.65 8.27L2.65 5.00L4.78 4.97C6.10 4.97 6.78 5.59 6.78 6.64C6.78 7.70 6.10 8.31 4.78 8.30ZM13.13 6.36C12.18 6.36 11.48 6.75 11.07 7.32L11.07 3.24L9.65 3.24L9.65 13.15L11.07 13.15L11.07 9.42C11.07 8.02 11.93 7.57 12.73 7.57C13.75 7.57 14.19 8.30 14.19 9.38L14.19 13.15L15.60 13.15L15.60 9.06C15.60 7 14.28 6.36 13.13 6.36ZM21.83 6.53L19.88 11.49L17.91 6.53L16.42 6.53L19.19 13.20L18.75 14.32C18.55 14.82 18.29 15.01 17.98 15.01C17.79 15.01 17.59 14.93 17.50 14.88L17.25 16.06C17.40 16.13 17.70 16.22 18.05 16.22C18.67 16.22 19.41 15.98 19.86 14.86L23.35 6.53ZM23.58 12.22C24.06 12.88 25.07 13.34 26.31 13.34C27.94 13.34 28.95 12.54 28.95 11.35C28.95 9.00 25.45 9.79 25.45 8.36C25.45 7.86 25.83 7.53 26.60 7.51C27.08 7.50 27.64 7.73 28.03 8.11L28.80 7.22C28.36 6.75 27.52 6.36 26.54 6.36C24.97 6.36 24.00 7.19 24.00 8.41C24.00 10.82 27.45 10.09 27.45 11.38C27.45 11.87 27.04 12.21 26.22 12.21C25.56 12.21 24.97 11.97 24.49 11.35ZM31.15 5.26C31.66 5.26 32.07 4.86 32.07 4.36C32.07 3.86 31.66 3.46 31.15 3.46C30.64 3.46 30.23 3.86 30.23 4.36C30.23 4.86 30.64 5.26 31.15 5.26ZM30.46 13.15L31.85 13.15L31.85 6.53L30.46 6.53ZM36.90 13.34C37.81 13.34 38.56 13.07 39.17 12.60L38.35 11.58C37.99 11.93 37.48 12.13 36.92 12.13C35.63 12.13 34.85 11.14 34.85 9.84C34.85 8.55 35.63 7.57 36.92 7.57C37.48 7.57 37.99 7.77 38.35 8.12L39.17 7.10C38.56 6.64 37.81 6.36 36.90 6.36C34.84 6.36 33.41 7.89 33.41 9.84C33.41 11.81 34.84 13.34 36.90 13.34ZM41.13 5.26C41.64 5.26 42.04 4.86 42.04 4.36C42.04 3.86 41.64 3.46 41.13 3.46C40.61 3.46 40.21 3.86 40.21 4.36C40.21 4.86 40.61 5.26 41.13 5.26ZM40.44 13.15L41.83 13.15L41.83 6.53L40.44 6.53ZM45.75 13.34C46.68 13.34 47.56 12.94 48.01 12.31L48.23 13.15L49.42 13.15L49.42 9.19C49.42 7.31 48.45 6.36 46.49 6.36C45.51 6.36 44.70 6.61 44.07 7.10L44.70 8.08C45.14 7.70 45.70 7.51 46.35 7.51C47.40 7.51 48.01 8.01 48.01 8.90L48.01 9.45L47.83 9.39C44.96 8.31 43.39 9.79 43.39 11.21C43.39 12.45 44.44 13.34 45.75 13.34ZM46.17 12.25C45.34 12.25 44.87 11.72 44.87 11.11C44.87 10.34 45.76 9.57 47.82 10.30L48.01 10.35L48.01 10.54C48.01 11.62 47.13 12.25 46.17 12.25ZM54.56 6.36C53.62 6.36 52.91 6.74 52.51 7.32L52.34 6.53L51.10 6.53L51.10 13.15L52.51 13.15L52.51 9.11C52.63 7.95 53.42 7.57 54.16 7.57C55.18 7.57 55.62 8.30 55.62 9.38L55.62 13.15L57.04 13.15L57.04 9.06C57.04 7 55.71 6.36 54.56 6.36ZM69.08 3.82L69.08 10.78L64.11 3.82L62.71 3.82L62.71 13.15L64.15 13.15L64.15 6.21L69.13 13.15L70.51 13.15L70.51 3.82ZM75.76 13.34C77.85 13.34 79.29 11.81 79.29 9.84C79.29 7.89 77.85 6.36 75.76 6.36C73.65 6.36 72.20 7.89 72.20 9.84C72.20 11.81 73.65 13.34 75.76 13.34ZM75.76 12.13C74.54 12.13 73.67 11.14 73.67 9.84C73.67 8.56 74.54 7.57 75.76 7.57C76.97 7.57 77.83 8.56 77.83 9.84C77.83 11.14 76.97 12.13 75.76 12.13ZM88.75 6.53L87.15 11.33L85.68 6.53L84.50 6.53L83.02 11.33L81.40 6.53L79.90 6.53L82.41 13.15L83.59 13.15L85.09 8.17L86.58 13.15L87.76 13.15L90.27 6.53Z"></path></g><defs data-v-423bf9ae=""><linearGradient data-v-423bf9ae="" gradientTransform="rotate(25)" id="b89b28a8-e47f-475f-a483-6015a463c294" x1="0%" y1="0%" x2="100%" y2="0%"><stop data-v-423bf9ae="" offset="0%" style="stop-color: rgb(0, 102, 120); stop-opacity: 1;"></stop><stop data-v-423bf9ae="" offset="100%" style="stop-color: rgb(79, 168, 255); stop-opacity: 1;"></stop></linearGradient></defs><g data-v-423bf9ae="" id="00165536-3627-41c9-a8a1-e75709603736" transform="matrix(1.5126051389937931,0,0,1.5126051389937931,130.66974756864323,-30.457147573080178)" stroke="none" fill="url(#b89b28a8-e47f-475f-a483-6015a463c294)"><path d="M29.5 51.8L42 79.9l12.8-36.5 9.9 25.2 9.7-11.2h16.3v-8h-20l-3.4 3.9-12.9-32.9-13.3 37.9-10.2-23.2-9.4 14.3H9.3v8h16.5z"></path></g><!----></svg>